<svg width="32" height="32" viewBox="0 0 32 32" fill="none" xmlns="http://www.w3.org/2000/svg">
<path fill-rule="evenodd" clip-rule="evenodd" d="M14.6207 7.07042C19.6861 13.2134 19.4354 22.7745 14.0606 28.4257C13.1917 29.3394 12.2421 30.0949 11.2391 30.6935C11.2411 30.6949 11.2431 30.6963 11.245 30.6977C13.2945 30.0955 15.2405 28.9295 16.8942 27.1907C22.2689 21.5395 22.5197 11.9784 17.4543 5.83542C16.6339 4.84048 15.7244 3.99623 14.7532 3.30397C13.7804 3.58959 12.8309 4.00218 11.9249 4.54271C12.8941 5.23428 13.8018 6.07728 14.6207 7.07042Z" fill="url(#paint0_linear_11_47)"/>
<path fill-rule="evenodd" clip-rule="evenodd" d="M6.89604 9.82828C7.43799 10.9697 8.11818 12.0526 8.93744 13.0462C11.4402 16.0813 14.7724 17.7141 18.1517 17.9078C13.6961 18.9748 8.8434 17.4272 5.48468 13.3539C5.4831 13.352 5.48151 13.3501 5.47992 13.3482C5.81091 12.1226 6.28323 10.9383 6.89604 9.82828Z" fill="url(#paint1_linear_11_47)"/>
<path fill-rule="evenodd" clip-rule="evenodd" d="M29.6869 25.9812C29.145 24.8399 28.4648 23.7569 27.6455 22.7634C25.1428 19.7283 21.8105 18.0954 18.4312 17.9017C22.8868 16.8347 27.7395 18.3823 31.0983 22.4556C31.0999 22.4575 31.1014 22.4594 31.103 22.4614C30.772 23.6869 30.2997 24.8712 29.6869 25.9812Z" fill="url(#paint2_linear_11_47)"/>
<path fill-rule="evenodd" clip-rule="evenodd" d="M19.4728 16.9206C22.1601 14.095 22.2855 9.3144 19.7528 6.24292C18.0352 4.15993 15.5362 3.3979 13.2674 4.00447C15.9014 2.26523 19.3628 2.77325 21.5533 5.42972C24.086 8.5012 23.9606 13.2817 21.2732 16.1074C20.4084 17.0167 19.3835 17.6128 18.3069 17.9007C18.7184 17.6289 19.1097 17.3024 19.4728 16.9206Z" fill="url(#paint3_linear_11_47)"/>
<defs>
<linearGradient id="paint0_linear_11_47" x1="7.15764" y1="9.55183" x2="21.0753" y2="22.7975" gradientUnits="userSpaceOnUse">
<stop stop-color="#006060"/>
<stop offset="0.401042" stop-color="#008080" stop-opacity="0.5"/>
</linearGradient>
<linearGradient id="paint1_linear_11_47" x1="6.96964" y1="9.7509" x2="16.9142" y2="19.2089" gradientUnits="userSpaceOnUse">
<stop stop-color="#006060"/>
<stop offset="0.401042" stop-color="#008080" stop-opacity="0.5"/>
</linearGradient>
<linearGradient id="paint2_linear_11_47" x1="29.6133" y1="26.0586" x2="19.6687" y2="16.6006" gradientUnits="userSpaceOnUse">
<stop stop-color="#006060"/>
<stop offset="0.401042" stop-color="#008080" stop-opacity="0.5"/>
</linearGradient>
<linearGradient id="paint3_linear_11_47" x1="13.4526" y1="3.80979" x2="23.7" y2="13.5558" gradientUnits="userSpaceOnUse">
<stop stop-color="#006060"/>
<stop offset="0.401042" stop-color="#008080" stop-opacity="0.5"/>
</linearGradient>
</defs>
</svg>
